.
 
http://www.scenetime.com    -  Hottest private tracker on the net. !!!

Sign up will close shortly !!  Join now 

        Seed back for speed


...................................NFO:.................................................[img]http://img713.imageshack.us/img713/8274/91kvkipng7tgyuk78k.jpg[/img]


[color=blue][size=3][b]Star.Wars.Original.Trilogy.1977.A.New.Hope.BDRip.XVID.AC3.HQ.Hive-CM8[/b][/size][/color]


[b]Source: Bluray

Video: 720x304 @bitrate 1800 2pass
Audio: English DTS to AC3 5.1 @448
Sample: yes included[/b]
 
http://www.imdb.com/title/tt0076759/


General
Complete name                    : Star.Wars.O-Trilogy.1977.A.New.Hope.BDRip.XVID.AC3.HQ.Hive-CM8.avi
Format                           : AVI
Format/Info                      : Audio Video Interleave
File size                        : 1.97 GiB
Duration                         : 2h 4mn
Overall bit rate                 : 2 257 Kbps
Writing application              : Nandub v1.0rc2
Writing library                  : Nandub build 1853/release

Video
ID                               : 0
Format                           : MPEG-4 Visual
Format profile                   : Advanced Simple@L5
Format settings, BVOP            : 1
Format settings, QPel            : Yes
Format settings, GMC             : No warppoints
Format settings, Matrix          : Default (H.263)
Muxing mode                      : Packed bitstream
Codec ID                         : XVID
Codec ID/Hint                    : XviD
Duration                         : 2h 4mn
Bit rate                         : 1 800 Kbps
Width                            : 720 pixels
Height                           : 304 pixels
Display aspect ratio             : 2.35:1
Frame rate                       : 23.976 fps
Color space                      : YUV
Chroma subsampling               : 4:2:0
Bit depth                        : 8 bits
Scan type                        : Progressive
Compression mode                 : Lossy
Bits/(Pixel*Frame)               : 0.343
Stream size                      : 1.57 GiB (80%)
Writing library                  : XviD 1.2.1 (UTC 2008-12-04)

Audio
ID                               : 1
Format                           : AC-3
Format/Info                      : Audio Coding 3
Mode extension                   : CM (complete main)
Codec ID                         : 2000
Duration                         : 2h 4mn
Bit rate mode                    : Constant
Bit rate                         : 448 Kbps
Channel(s)                       : 6 channels
Channel positions                : Front: L C R, Side: L R, LFE
Sampling rate                    : 48.0 KHz
Bit depth                        : 16 bits
Compression mode                 : Lossy
Stream size                      : 400 MiB (20%)
Alignment                        : Split accross interleaves
Interleave, duration             : 42 ms (1.00 video frame)
Interleave, preload duration     : 500 ms


Plot:
Luke Skywalker leaves his home planet, teams up with other rebels, and tries to
save Princess Leia from the evil clutches of Darth Vader.


Cast:
Mark Hamill      ...    Luke Skywalker
Harrison Ford    ...    Han Solo
Carrie Fisher    ...    Princess Leia Organa
Alec Guinness    ...    Ben Obi-Wan Kenobi
James Earl Jones ...    Darth Vader (voice)


[img]http://img707.imageshack.us/img707/5417/36951036.png[/img]
[img]http://img707.imageshack.us/img707/741/stssststtst.png[/img]
[img]http://img714.imageshack.us/img714/7290/stsssttst.png[/img]
[img]http://img855.imageshack.us/img855/662/stssttst.png[/img]
[img]http://img192.imageshack.us/img192/857/stst.png[/img]
[img]http://img24.imageshack.us/img24/5246/ststst.png[/img]
[img]http://img41.imageshack.us/img41/8346/stssstsstttst.png[/img]



Greetz

ViSiON,SiC,SANTi,3LT0N,YanKeeS,MAGNET,THC,T0XiC,LKRG,FANTASIA-PLAY,FANTASIA-M,BHRG,FLAWL3SS,
D2U,WBZ,NOVA,Vik,Rapeseed,SAFC,goldadvance,MEMORY100,scumbag,KaN1vE,Unevano,Pinnz,Wayne
Mr Hive,cedrict wink,and all P2P groups
Great Work Guys :D

FYS

LOOKING FOR ANYTHING YOU WANT TO LOOK AND SOUND BETTER

CM8@hushmail.com